<svg width="56" height="48" viewBox="0 0 56 48" xmlns="http://www.w3.org/2000/svg">
    <title>OMLogo</title>
    <path fill="#8F298E" style="mix-blend-mode:multiply" d="M33 8c11 0 20 8 20 18 0 3.6-1.2 7-3.2 9.8a2 2 0 0 0-.3 1.7l2 6a2 2 0 0 1-2.8 2.3l-6.4-3.2a2 2 0 0 0-1.6 0c-2.4.9-5 1.4-7.7 1.4-11 0-20-8-20-18S22 8 33 8" />
    <path fill="#29AAE1" style="mix-blend-mode:multiply" d="M23 8C12 8 3 16 3 26c0 3.6 1.2 7 3.2 9.8.4.5.5 1.1.3 1.7l-2 6a2 2 0 0 0 2.8 2.3l6.4-3.2a2 2 0 0 1 1.6 0c2.4.9 5 1.4 7.7 1.4 11 0 20-8 20-18S34 8 23 8" />
    <path fill="#FFF" d="M24 19c0 1.1-.7 2-1.5 2s-1.5-.9-1.5-2 .7-2 1.5-2 1.5.9 1.5 2M36 19c0 1.1-.7 2-1.5 2s-1.5-.9-1.5-2 .7-2 1.5-2 1.5.9 1.5 2M34.2 26.4l-.3.4A6.6 6.6 0 0 1 29 29a6.4 6.4 0 0 1-5.2-2.6 1 1 0 1 0-1.6 1.2A8.3 8.3 0 0 0 29 31a8.3 8.3 0 0 0 6.8-3.4 1 1 0 1 0-1.6-1.2z" />
</svg>
